<?xml version="1.0" encoding="utf-8"?>
<svg xmlns="http://www.w3.org/2000/svg" height="256" width="256" viewBox="0 0 256 256">
  <g>
    <path id="path1" transform="rotate(0,128,128) translate(0,0.0399932861328125) scale(8,8)  " fill="#0099D3" d="M22.175003,19.919991C22.175003,19.919991 22.185005,19.919991 22.204002,19.919991 22.601006,19.916023 26.945999,20.161018 32,31.990002 32,31.990002 20.895004,27.346018 19.725006,22.581978z M10.697006,19.260992L17.049004,23.377998C14.579002,29.023996 15.872002,30.554028 15.872002,30.554028 10.461006,25.258982 10.697006,19.260992 10.697006,19.260992z M15.873001,14.424016C15.065002,14.424016 14.409004,15.078984 14.409004,15.888006 14.409004,16.697027 15.065002,17.351996 15.873001,17.351996 16.681,17.351996 17.338005,16.697027 17.338005,15.888006 17.338005,15.078984 16.681,14.424016 15.873001,14.424016z M12.462006,11.013004C11.653,11.013004 10.997002,11.667973 10.997002,12.476017 10.997002,13.284978 11.653,13.940007 12.462006,13.940007 13.270004,13.940007 13.925003,13.284978 13.925003,12.476017 13.925003,11.667973 13.270004,11.013004 12.462006,11.013004z M19.537003,10.817997C20.503006,10.820011 25.881004,11.059025 30.704002,15.937018 30.704002,15.937018 29.167999,14.651982 23.535004,17.151007L19.384003,10.820011C19.384003,10.820011,19.437004,10.817997,19.537003,10.817997z M8.3440018,5.8510152C7.0439987,5.8510152 5.9920044,6.9039942 5.9920044,8.2030059 5.9920044,9.5009795 7.0439987,10.554997 8.3440018,10.554997 9.6430054,10.554997 10.697006,9.5009795 10.697006,8.2030059 10.697006,6.9039942 9.6430054,5.8510152 8.3440018,5.8510152z M0,0C0,-1.096596E-07 12.059006,0.64099132 21.872002,17.729986 21.872002,17.729986 18.292999,20.076973 17.588005,21.724007 17.588005,21.724007 1.7260056,12.547978 0,0z" />
  </g>
</svg>

