<svg width="282" height="117" viewBox="0 0 282 117" fill="none" xmlns="http://www.w3.org/2000/svg">
<path fill-rule="evenodd" clip-rule="evenodd" d="M67.0696 78.7896H50.9639C52.2871 65.1035 67.8633 64.2339 67.0696 78.7896ZM37.996 78.0715C32.8165 78.6384 22.9111 78.8651 22.9111 66.1999V29.1114H51.3797V17.6935H22.9111V0L0 29.0359H9.18728V66.1999C9.18728 85.7839 24.4989 86.3509 37.429 86.1619C37.7314 95.4248 45.066 109.451 60.3398 110.018C69.4893 110.018 78.6006 103.629 80.7179 92.8539L68.9219 91.9843C66.805 104.196 50.699 102.759 51.2285 86.767H80.7179C80.7179 72.1735 75.9163 58.4875 59.0165 58.4875C47.7879 58.4875 40.1511 65.3681 37.996 78.0715ZM112.589 65.2925L125.216 66.1999C125.216 71.455 121.171 86.5402 104.271 86.5402C89.5268 86.5402 82.2678 74.6687 82.2678 60.0752C82.2678 51.0773 85.217 35.6141 103.477 34.1775C113.912 33.2701 124.65 40.2645 124.65 53.1186L111.795 53.9883C111.795 46.427 107.75 44.9526 104.801 44.9526C99.1676 45.5195 97.0125 51.682 97.0125 60.9449C97.0125 70.0184 99.9617 75.2357 104.801 74.6687C107.75 74.6687 111.795 73.1943 112.589 65.2925ZM160.453 60.0752C160.453 49.338 158.562 44.0829 153.458 44.0829C145.67 44.0829 145.67 56.2946 145.67 60.0752C145.67 65.2925 146.502 76.1054 152.929 76.975C158.562 76.975 160.453 70.8503 160.453 60.0752ZM131.72 60.0752C131.72 37.9582 146.502 34.1775 153.458 34.1775C164.196 34.1775 173.874 40.2645 174.668 60.0752C174.668 76.975 165.557 86.5402 152.929 86.5402C136.029 86.5402 131.72 72.3247 131.72 60.0752ZM180.831 35.6141H193.458V44.0829C197.768 31.8335 219.469 29.5272 221.095 49.338V85.1033H207.674V56.2945C207.674 41.7388 194.252 45.5195 194.252 56.8993V85.1033H180.831V35.6141V35.6141Z" fill="#0099D3"/>
<path fill-rule="evenodd" clip-rule="evenodd" d="M91.423 21.0266H243.18C243.18 21.0266 281.176 22.7282 281.176 65.7146C281.176 102.765 257.055 116.754 233.653 116.754H91.423V95.8847L242.386 95.7709C242.386 95.7709 271.271 96.1115 271.951 65.7146C271.951 34.0323 243.18 32.4446 243.18 32.4446H91.423V21.0266V21.0266Z" fill="#0099D3"/>
<path fill-rule="evenodd" clip-rule="evenodd" d="M74.6744 8.21033L73.3134 25.1479L66.4706 26.6223L73.3134 28.1723L74.6744 41.0268L75.9598 28.1723L82.803 26.6223L75.9598 25.1479L74.6744 8.21033Z" fill="#0099D3"/>
<path fill-rule="evenodd" clip-rule="evenodd" d="M98.1146 112.104L103.861 100.762H106.016L112.141 112.104H109.873L108.134 108.663H101.82L100.194 112.104H98.1146V112.104ZM102.425 107.454H107.529L105.941 104.315C105.487 103.371 105.147 102.576 104.882 101.934C104.693 102.69 104.391 103.408 104.05 104.126L102.425 107.454ZM114.372 112.104V100.762H119.967C121.139 100.762 122.047 100.875 122.727 101.102C123.445 101.329 123.975 101.707 124.353 102.161C124.769 102.652 124.958 103.143 124.958 103.673C124.958 104.164 124.769 104.618 124.428 105.034C124.088 105.487 123.559 105.828 122.841 106.093C123.748 106.281 124.466 106.622 124.958 107.113C125.449 107.605 125.676 108.172 125.676 108.815C125.676 109.344 125.525 109.835 125.223 110.327C124.92 110.781 124.58 111.121 124.126 111.348C123.71 111.612 123.143 111.801 122.5 111.915C121.82 112.066 121.026 112.104 120.08 112.104H114.372V112.104ZM116.338 105.525H119.589C120.459 105.525 121.101 105.487 121.479 105.412C121.971 105.298 122.349 105.109 122.614 104.845C122.878 104.58 122.992 104.24 122.992 103.862C122.992 103.484 122.878 103.143 122.651 102.841C122.387 102.576 122.047 102.387 121.631 102.274C121.177 102.161 120.421 102.123 119.325 102.123H116.338V105.525ZM116.338 110.781H120.08C120.723 110.781 121.177 110.781 121.441 110.743C121.895 110.667 122.273 110.554 122.576 110.402C122.878 110.289 123.143 110.062 123.332 109.798C123.521 109.495 123.634 109.192 123.634 108.815C123.634 108.399 123.483 108.02 123.181 107.718C122.916 107.416 122.5 107.189 122.009 107.076C121.479 106.924 120.761 106.887 119.816 106.887H116.338V110.781ZM130.818 112.104V102.123H125.865V100.762H137.737V102.123H132.784V112.104H130.818V112.104ZM138.228 106.584C138.228 104.731 138.909 103.257 140.232 102.161C141.593 101.102 143.294 100.573 145.411 100.573C146.81 100.573 148.058 100.837 149.154 101.329C150.288 101.82 151.12 102.539 151.687 103.408C152.292 104.315 152.595 105.336 152.595 106.47C152.595 107.605 152.254 108.626 151.649 109.533C151.045 110.44 150.175 111.159 149.041 111.612C147.906 112.066 146.697 112.293 145.411 112.293C144.012 112.293 142.727 112.028 141.631 111.537C140.496 111.007 139.664 110.327 139.098 109.42C138.53 108.55 138.228 107.605 138.228 106.584ZM140.307 106.622C140.307 107.983 140.761 109.079 141.744 109.835C142.727 110.629 143.937 111.007 145.411 111.007C146.886 111.007 148.095 110.629 149.079 109.835C150.062 109.041 150.515 107.907 150.515 106.47C150.515 105.525 150.326 104.732 149.91 104.051C149.494 103.371 148.89 102.841 148.095 102.463C147.302 102.085 146.432 101.896 145.411 101.896C144.012 101.896 142.803 102.236 141.82 102.992C140.799 103.711 140.307 104.92 140.307 106.622ZM155.808 112.104V100.762H158.795L162.349 108.815C162.651 109.533 162.916 110.1 163.067 110.478C163.218 110.062 163.483 109.457 163.861 108.663L167.453 100.762H170.099V112.104H168.209V102.614L163.823 112.104H162.046L157.736 102.463V112.104H155.808ZM172.405 112.104L178.152 100.762H180.307L186.432 112.104H184.164L182.424 108.663H176.11L174.485 112.104H172.405V112.104ZM176.716 107.454H181.819L180.231 104.315C179.778 103.371 179.4 102.576 179.173 101.934C178.946 102.69 178.681 103.408 178.341 104.126L176.716 107.454ZM190.175 112.104V102.123H185.222V100.762H197.093V102.123H192.141V112.104H190.175ZM199.929 100.762H201.706V109.76L209.683 100.762H211.649V112.104H209.872V103.143L201.895 112.104H199.929V100.762ZM215.694 100.762H217.698V105.752C218.606 105.752 219.21 105.601 219.589 105.336C219.967 105.072 220.42 104.429 220.987 103.446C221.403 102.69 221.743 102.161 222.046 101.858C222.311 101.556 222.689 101.291 223.18 101.064C223.672 100.875 224.239 100.762 224.844 100.762C225.6 100.762 225.978 100.762 226.054 100.762V102.085C225.978 102.085 225.827 102.085 225.637 102.047C225.411 102.047 225.297 102.047 225.222 102.047C224.617 102.047 224.125 102.161 223.823 102.387C223.52 102.652 223.142 103.143 222.764 103.9C222.235 104.845 221.819 105.45 221.479 105.715C221.139 105.941 220.722 106.168 220.231 106.319C221.214 106.508 222.159 107.189 223.104 108.323L226.167 112.104H223.709L221.214 109.041C220.534 108.172 219.929 107.605 219.475 107.302C219.021 106.962 218.417 106.811 217.698 106.811V112.104H215.694V100.762ZM226.923 112.104L232.707 100.762H234.862L240.987 112.104H238.719L236.98 108.663H230.666L229.04 112.104H226.923ZM231.233 107.454H236.375L234.787 104.315C234.333 103.371 233.955 102.576 233.728 101.934C233.501 102.69 233.237 103.408 232.896 104.126L231.233 107.454Z" fill="#FEFEFE"/>
</svg>
